<?xml version="1.0" encoding="UTF-8"?>
<!-- Generator: visioncortex VTracer 0.6.12 -->
<svg version="1.1" xmlns="http://www.w3.org/2000/svg" viewBox="0 0 1024 1024" width="1024" height="1024" xmlns:c2pa="http://c2pa.org/manifest"><metadata><c2pa:manifest>AAAWgmp1bWIAAAAeanVtZGMycGEAEQAQgAAAqgA4m3EDYzJwYQAAABZcanVtYgAAAEdqdW1kYzJtYQARABCAAACqADibcQN1cm46YzJwYTo0MDVkN2MxNy03OGFjLTRiMWYtOTE1Zi03MWE0YjcyM2RiMWUAAAADl2p1bWIAAAApanVtZGMyYXMAEQAQgAAAqgA4m3EDYzJwYS5hc3NlcnRpb25zAAAAALxqdW1iAAAARGp1bWRjYm9yABEAEIAAAKoAOJtxE2MycGEuaW5ncmVkaWVudC52MwAAAAAYYzJzaPzdJ4BD22+yTfGPHfFrul0AAABwY2JvcqNpZGM6Zm9ybWF0bWltYWdlL3N2Zyt4bWxqaW5zdGFuY2VJRHgseG1wOmlpZDo0NGYxNTFhYi0yZDA3LTQwYWUtOWQwNC1mMGY5ODdjMDMxZTFscmVsYXRpb25zaGlwaHBhcmVudE9mAAAB4mp1bWIAAABBanVtZGNib3IAEQAQgAAAqgA4m3ETYzJwYS5hY3Rpb25zLnYyAAAAABhjMnNokHhpdXhaovB0MGHfHhlINAAAAZljYm9yomdhY3Rpb25zgqJmYWN0aW9ua2MycGEub3BlbmVkanBhcmFtZXRlcnOha2luZ3JlZGllbnRzgaJjdXJseC1zZWxmI2p1bWJmPWMycGEuYXNzZXJ0aW9ucy9jMnBhLmluZ3JlZGllbnQudjNkaGFzaFggf87OtPvp7SLCiGsDGSD/kU2jWzr7U4PtQFX9QHEVsbWkZmFjdGlvbngdY29tLmFudGhyb3BpYy5jbGF1ZGUucHJvdmlkZWRqcGFyYW1ldGVyc6F4H2NvbS5hbnRocm9waWMub3JpZ2luLWNvbmZpZGVuY2VndW5rbm93bmtkZXNjcmlwdGlvbnhmQ2xhdWRlIHByb3ZpZGVkIHRoaXMgZmlsZSBhdCB0aGUgcmVxdWVzdCBvZiBhIHVzZXIgYW5kIG1heSBoYXZlIGNyZWF0ZWQgb3IgbW9kaWZpZWQgdGhlIGZpbGUgY29udGVudHMubXNvZnR3YXJlQWdlbnShZG5hbWVmQ2xhdWRlcmFsbEFjdGlvbnNJbmNsdWRlZPUAAADIanVtYgAAAEBqdW1kY2JvcgARABCAAACqADibcRNjMnBhLmhhc2guZGF0YQAAAAAYYzJzaA5Fhz1qv12rN1YVJ9K1eDQAAACAY2JvcqVjYWxnZnNoYTI1NmNwYWRNAAAAAAAAAAAAAAAAAGRoYXNoWCDRyy3gfUwgr91n3DX+jPtnI4OQ2OaKeoHUT17ECgJMFWRuYW1lbmp1bWJmIG1hbmlmZXN0amV4Y2x1c2lvbnOBomVzdGFydBj/Zmxlbmd0aBkeBAAAAj5qdW1iAAAAJ2p1bWRjMmNsABEAEIAAAKoAOJtxA2MycGEuY2xhaW0udjIAAAACD2Nib3KlY2FsZ2ZzaGEyNTZpc2lnbmF0dXJleE1zZWxmI2p1bWJmPS9jMnBhL3VybjpjMnBhOjQwNWQ3YzE3LTc4YWMtNGIxZi05MTVmLTcxYTRiNzIzZGIxZS9jMnBhLnNpZ25hdHVyZWppbnN0YW5jZUlEeCx4bXA6aWlkOmZkYzEzYWRmLTBmOGUtNDY3Ni1hNzY2LTc0NDFhODcxMjI5YnJjcmVhdGVkX2Fzc2VydGlvbnODomN1cmx4LXNlbGYjanVtYmY9YzJwYS5hc3NlcnRpb25zL2MycGEuaW5ncmVkaWVudC52M2RoYXNoWCB/zs60++ntIsKIawMZIP+RTaNbOvtTg+1AVf1AcRWxtaJjdXJseCpzZWxmI2p1bWJmPWMycGEuYXNzZXJ0aW9ucy9jMnBhLmFjdGlvbnMudjJkaGFzaFggIEG7dlsr6DPWuIGisfPqknvHCZQYBK8nPwOkKDmFLMqiY3VybHgpc2VsZiNqdW1iZj1jMnBhLmFzc2VydGlvbnMvYzJwYS5oYXNoLmRhdGFkaGFzaFggITMKArhNlx2lHFI19nGrjrUw2CnVzQWWFFemAw8DXll0Y2xhaW1fZ2VuZXJhdG9yX2luZm+jZG5hbWVvQW50aHJvcGljIEZpbGVzZ3ZlcnNpb25lMS4wLjBrc3BlY1ZlcnNpb25lMi40LjAAABA4anVtYgAAAChqdW1kYzJjcwARABCAAACqADibcQNjMnBhLnNpZ25hdHVyZQAAABAIY2JvctKEWQISogEmGCFZAgowggIGMIIBjaADAgECAhRA5aAK7sI50L64g/oGQgU9Z1UTADAKBggqhkjOPQQDAzBJMRcwFQYDVQQKEw5BbnRocm9waWMsIFBCQzEuMCwGA1UEAxMlQW50aHJvcGljIENvbnRlbnQgQ3JlZGVudGlhbHMgUm9vdCBDQTAeFw0yNjA4MDcxODQzNTZaFw0yODA4MDYxOTQzNTZaMEQxFzAVBgNVBAoTDkFudGhyb3BpYywgUEJDMSkwJwYDVQQDEyBBbnRocm9waWMgQ2xhdWRlIENvbnRlbnQgU2lnbmluZzBZMBMGByqGSM49AgEGCCqGSM49AwEHA0IABJh6CmvLUBgFFNU0vUKlOVtE6djd17L5SuwX0LemFisBM3dkd/3cyjxFA3Qo5S46fX0/ihY0VZ7mfb9KF703t5OjWDBWMA4GA1UdDwEB/wQEAwIHgDAVBgNVHSUEDjAMBgorBgEEAYPoXgIBMAwGA1UdEwEB/wQCMAAwHwYDVR0jBBgwFoAUzlHiBIFOZFsj+OPEz5o+nMHXXMIwCgYIKoZIzj0EAwMDZwAwZAIwMXMdFJ4BetLLVY7ORuE9noqbbAZOZn/aArXyTwFAZfKrPzxF2vPoJNf1+UCdg1XGAjBwX1zd9WGqYkqmL5SFqw1QySjr1zJfpJM9+1rdDwSPLMOPOjKuiXjoU/pUUeG9RwmhY3BhZFkNngAAAAAAAAAAAAAAAAAAAAAAAAAAAAAAAAAAAAAAAAAAAAAAAAAAAAAAAAAAAAAAAAAAAAAAAAAAAAAAAAAAAAAAAAAAAAAAAAAAAAAAAAAAAAAAAAAAAAAAAAAAAAAAAAAAAAAAAAAAAAAAAAAAAAAAAAAAAAAAAAAAAAAAAAAAAAAAAAAAAAAAAAAAAAAAAAAAAAAAAAAAAAAAAAAAAAAAAAAAAAAAAAAAAAAAAAAAAAAAAAAAAAAAAAAAAAAAAAAAAAAAAAAAAAAAAAAAAAAAAAAAAAAAAAAAAAAAAAAAAAAAAAAAAAAAAAAAAAAAAAAAAAAAAAAAAAAAAAAAAAAAAAAAAAAAAAAAAAAAAAAAAAAAAAAAAAAAAAAAAAAAAAAAAAAAAAAAAAAAAAAAAAAAAAAAAAAAAAAAAAAAAAAAAAAAAAAAAAAAAAAAAAAAAAAAAAAAAAAAAAAAAAAAAAAAAAAAAAAAAAAAAAAAAAAAAAAAAAAAAAAAAAAAAAAAAAAAAAAAAAAAAAAAAAAAAAAAAAAAAAAAAAAAAAAAAAAAAAAAAAAAAAAAAAAAAAAAAAAAAAAAAAAAAAAAAAAAAAAAAAAAAAAAAAAAAAAAAAAAAAAAAAAAAAAAAAAAAAAAAAAAAAAAAAAAAAAAAAAAAAAAAAAAAAAAAAAAAAAAAAAAAAAAAAAAAAAAAAAAAAAAAAAAAAAAAAAAAAAAAAAAAAAAAAAAAAAAAAAAAAAAAAAAAAAAAAAAAAAAAAAAAAAAAAAAAAAAAAAAAAAAAAAAAAAAAAAAAAAAAAAAAAAAAAAAAAAAAAAAAAAAAAAAAAAAAAAAAAAAAAAAAAAAAAAAAAAAAAAAAAAAAAAAAAAAAAAAAAAAAAAAAAAAAAAAAAAAAAAAAAAAAAAAAAAAAAAAAAAAAAAAAAAAAAAAAAAAAAAAAAAAAAAAAAAAAAAAAAAAAAAAAAAAAAAAAAAAAAAAAAAAAAAAAAAAAAAAAAAAAAAAAAAAAAAAAAAAAAAAAAAAAAAAAAAAAAAAAAAAAAAAAAAAAAAAAAAAAAAAAAAAAAAAAAAAAAAAAAAAAAAAAAAAAAAAAAAAAAAAAAAAAAAAAAAAAAAAAAAAAAAAAAAAAAAAAAAAAAAAAAAAAAAAAAAAAAAAAAAAAAAAAAAAAAAAAAAAAAAAAAAAAAAAAAAAAAAAAAAAAAAAAAAAAAAAAAAAAAAAAAAAAAAAAAAAAAAAAAAAAAAAAAAAAAAAAAAAAAAAAAAAAAAAAAAAAAAAAAAAAAAAAAAAAAAAAAAAAAAAAAAAAAAAAAAAAAAAAAAAAAAAAAAAAAAAAAAAAAAAAAAAAAAAAAAAAAAAAAAAAAAAAAAAAAAAAAAAAAAAAAAAAAAAAAAAAAAAAAAAAAAAAAAAAAAAAAAAAAAAAAAAAAAAAAAAAAAAAAAAAAAAAAAAAAAAAAAAAAAAAAAAAAAAAAAAAAAAAAAAAAAAAAAAAAAAAAAAAAAAAAAAAAAAAAAAAAAAAAAAAAAAAAAAAAAAAAAAAAAAAAAAAAAAAAAAAAAAAAAAAAAAAAAAAAAAAAAAAAAAAAAAAAAAAAAAAAAAAAAAAAAAAAAAAAAAAAAAAAAAAAAAAAAAAAAAAAAAAAAAAAAAAAAAAAAAAAAAAAAAAAAAAAAAAAAAAAAAAAAAAAAAAAAAAAAAAAAAAAAAAAAAAAAAAAAAAAAAAAAAAAAAAAAAAAAAAAAAAAAAAAAAAAAAAAAAAAAAAAAAAAAAAAAAAAAAAAAAAAAAAAAAAAAAAAAAAAAAAAAAAAAAAAAAAAAAAAAAAAAAAAAAAAAAAAAAAAAAAAAAAAAAAAAAAAAAAAAAAAAAAAAAAAAAAAAAAAAAAAAAAAAAAAAAAAAAAAAAAAAAAAAAAAAAAAAAAAAAAAAAAAAAAAAAAAAAAAAAAAAAAAAAAAAAAAAAAAAAAAAAAAAAAAAAAAAAAAAAAAAAAAAAAAAAAAAAAAAAAAAAAAAAAAAAAAAAAAAAAAAAAAAAAAAAAAAAAAAAAAAAAAAAAAAAAAAAAAAAAAAAAAAAAAAAAAAAAAAAAAAAAAAAAAAAAAAAAAAAAAAAAAAAAAAAAAAAAAAAAAAAAAAAAAAAAAAAAAAAAAAAAAAAAAAAAAAAAAAAAAAAAAAAAAAAAAAAAAAAAAAAAAAAAAAAAAAAAAAAAAAAAAAAAAAAAAAAAAAAAAAAAAAAAAAAAAAAAAAAAAAAAAAAAAAAAAAAAAAAAAAAAAAAAAAAAAAAAAAAAAAAAAAAAAAAAAAAAAAAAAAAAAAAAAAAAAAAAAAAAAAAAAAAAAAAAAAAAAAAAAAAAAAAAAAAAAAAAAAAAAAAAAAAAAAAAAAAAAAAAAAAAAAAAAAAAAAAAAAAAAAAAAAAAAAAAAAAAAAAAAAAAAAAAAAAAAAAAAAAAAAAAAAAAAAAAAAAAAAAAAAAAAAAAAAAAAAAAAAAAAAAAAAAAAAAAAAAAAAAAAAAAAAAAAAAAAAAAAAAAAAAAAAAAAAAAAAAAAAAAAAAAAAAAAAAAAAAAAAAAAAAAAAAAAAAAAAAAAAAAAAAAAAAAAAAAAAAAAAAAAAAAAAAAAAAAAAAAAAAAAAAAAAAAAAAAAAAAAAAAAAAAAAAAAAAAAAAAAAAAAAAAAAAAAAAAAAAAAAAAAAAAAAAAAAAAAAAAAAAAAAAAAAAAAAAAAAAAAAAAAAAAAAAAAAAAAAAAAAAAAAAAAAAAAAAAAAAAAAAAAAAAAAAAAAAAAAAAAAAAAAAAAAAAAAAAAAAAAAAAAAAAAAAAAAAAAAAAAAAAAAAAAAAAAAAAAAAAAAAAAAAAAAAAAAAAAAAAAAAAAAAAAAAAAAAAAAAAAAAAAAAAAAAAAAAAAAAAAAAAAAAAAAAAAAAAAAAAAAAAAAAAAAAAAAAAAAAAAAAAAAAAAAAAAAAAAAAAAAAAAAAAAAAAAAAAAAAAAAAAAAAAAAAAAAAAAAAAAAAAAAAAAAAAAAAAAAAAAAAAAAAAAAAAAAAAAAAAAAAAAAAAAAAAAAAAAAAAAAAAAAAAAAAAAAAAAAAAAAAAAAAAAAAAAAAAAAAAAAAAAAAAAAAAAAAAAAAAAAAAAAAAAAAAAAAAAAAAAAAAAAAAAAAAAAAAAAAAAAAAAAAAAAAAAAAAAAAAAAAAAAAAAAAAAAAAAAAAAAAAAAAAAAAAAAAAAAAAAAAAAAAAAAAAAAAAAAAAAAAAAAAAAAAAAAAAAAAAAAAAAAAAAAAAAAAAAAAAAAAAAAAAAAAAAAAAAAAAAAAAAAAAAAAAAAAAAAAAAAAAAAAAAAAAAAAAAAAAAAAAAAAAAAAAAAAAAAAAAAAAAAAAAAAAAAAAAAAAAAAAAAAAAAAAAAAAAAAAAAAAAAAAAAAAAAAAAAAAAAAAAAAAAAAAAAAAAAAAAAAAAAAAAAAAAAAAAAAAAAAAAAAAAAAAAAAAAAAAAAAAAAAAAAAAAAAAAAAAAAAAAAAAAAAAAAAAAAAAAAAAAAAAAAAAAAAAAAAAAAAAAAAAAAAAAAAAAAAAAAAAAAAAAAAAAAAAAAAAAAAAAAAAAAAAAAAAAAAAAAAAAAAAAAAAAAAAAAAAAAAAAAAAAAAAAAAAAAAAAAAAAAAAAAAAAAAAAAAAAAAAAAAAAAAAAAAAAAAAAAAAAAAAAAAAAAAAAAAAAAAAAAAAAAAAAAAAAAAAAAAAAAAAAAAAAAAAAAAAAAAAAAAAAAAAAAAAAAAAAAAAAAAAAAAAAAAAAAAAAAAAAAAAAAAAAAAAAAAAAAAAAAAAAAAAAAAAAAAAAAAAAAAAAAAAAAAAAAAAAAAAAAAAAAAAAAAAAAAAAAAAAAAAAAAAAAAAAAAAAAAAAAAAAAAAAAAAAAAAAAAAAAAAAAAAAAAAAAAAAAAAAAAAAAAAAAAAAAAAAAAAAAAAAAAAAAAAAAAAAAAAAAAAAAAAAAAAAAAAAAAAAAAAAAAAAAAAAAAAAAAAAAAAAAAAAAAAAAAAAAAAAAAAAAAAAAAAAAAAAAAAAAAAAAAAAAAAAAAAAAAAAAAAAAAAAAAAAAAAAAAAAAAAAAAAAAAAAAAAAAAAAAAAAAAAAAAAAAAAAAAAAAAAAAAAAAAAAAAAAAAAAAAAAAAAAAAAAAAAAAAAAAAAAAAAAAAAAAAAAAAAAAAAAAAAAAAAAAAAAAAAAAAAAAAAAAAAAAAAAAAAAAAAAAAAAAAAAAAAAAAAAAAAAAAAAAAAAAAAAAAAAAAAAAAAAAAAAAAAAAAAAAAAAAAAAAAAAAAAAAAAAAAAAAAAAAAAAAAAAAAAAAAAAAAAAAAAAAAAAAAAAAAAAAAAAAAAAAAAAAAAAAAAAAAAAAAAAAAAAAAAAAAAAAAAAAAAAAAAAAAAAAAAAAAAAAAAAAAAAAAAAAAAAAAAAAAAAAAAAAAAAAAAAAAAAAAAAAAAAAAAAAAAAAAAAAAAAAAAAAAAAAAAAAAAAAAAAAAAAAAAAAAAAAAAAAAAAAAAAAAAAAAAAAAAAAAAAAAAAAAAAAAAAAAAAAAAAAAAAAAAAAAAAAAAAAAAAAAAAAAAAAAAAAAAAAAAAAAAAAAAAAAAAAAAAAAAAAAAAAAAAAAAAAAAAAAAAAAAAAAAAAAAAAAAAAAAPZYQKLKAAF2k9Ohr2NO/SS8QqJfUjhDWa6DA0JuTyog3qKNV2EimYz4c5XAWZHPGkBLIcoxPL96ld3lpPA5Y5IUEJE=</c2pa:manifest></metadata>
<path d="M0 0 C1.02 0.46 2.03 0.93 3.08 1.41 C25.05 11.46 46.21 23.11 66 37 C67.41 37.98 68.82 38.95 70.22 39.93 C79.01 46.04 87.6 52.36 96 59 C96.87 59.68 97.75 60.36 98.65 61.06 C104.71 65.87 110.4 71.04 116.06 76.31 C116.44 76.66 116.44 76.66 118.34 78.42 C119.04 79.08 119.75 79.74 120.47 80.43 C121.1 81.02 121.74 81.61 122.39 82.22 C125.59 85.76 126.6 89.07 126.42 93.89 C125.58 98.08 122.72 100.82 120 104 C118.11 106.32 116.24 108.66 114.38 111 C114.12 111.32 114.12 111.32 112.8 112.96 C107.02 120.17 101.5 127.57 96 135 C95.41 135.79 94.83 136.58 94.22 137.4 C80.44 155.99 80.44 155.99 75 164 C74.64 164.53 74.28 165.06 73.91 165.6 C68.26 173.95 62.81 182.4 57.5 190.97 C55.85 193.65 54.17 196.31 52.46 198.97 C45.57 209.76 38.49 220.95 34 233 C34.46 233.39 34.92 233.77 35.39 234.17 C44.42 241.83 44.42 241.83 46 245 C46.36 250.8 45.71 254.65 43.38 260.06 C43.11 260.7 42.84 261.33 42.57 261.98 C41.73 263.99 40.86 266 40 268 C38.84 270.7 37.7 273.41 36.56 276.12 C36.05 277.32 35.53 278.52 35 279.76 C33.95 283.17 33.66 284.71 35 288 C36.83 289.67 36.83 289.67 39.25 291.19 C52.77 300.11 64.59 310.53 76 322 C76.39 322.38 76.39 322.38 78.36 324.29 C84.39 330.18 89.85 336.33 95 343 C95.5 343.64 96 344.28 96.51 344.94 C123.11 379.18 143.22 419.71 151.08 462.59 C151.24 463.46 151.4 464.32 151.56 465.21 C151.84 466.8 152.1 468.39 152.32 469.99 C153.21 475.2 155.05 477.57 159.25 480.76 C159.83 481.17 160.4 481.58 161 482 C161.76 482.57 162.51 483.14 163.29 483.72 C163.92 484.16 164.54 484.61 165.19 485.06 C169.32 488.12 172.34 491.03 174 496 C175.62 511.65 175.15 527.77 175.23 543.49 C175.24 545.62 175.26 547.74 175.28 549.86 C175.31 552.89 175.32 555.92 175.33 558.95 C175.34 559.86 175.35 560.77 175.37 561.71 C175.34 569.58 173.44 575.07 168 581 C165.75 582.81 165.75 582.81 164 584 C164.57 588.66 165.47 592.95 166.89 597.43 C167.08 598.03 167.08 598.03 168.04 601.09 C168.44 602.34 168.84 603.59 169.25 604.88 C170.03 607.33 170.8 609.79 171.58 612.24 C171.78 612.87 171.98 613.5 172.18 614.15 C173.84 619.42 175.41 624.72 176.96 630.02 C180.03 640.53 183.17 651.01 186.31 661.5 C186.65 662.61 186.98 663.72 187.32 664.87 C194.51 688.85 194.51 688.85 198.31 700.56 C201.19 709.45 204.01 718.35 206.75 727.27 C207.2 728.73 207.65 730.19 208.11 731.65 C214.05 750.69 214.05 750.69 211.97 757.25 C209.58 760.58 206.84 762.77 203.5 765.06 C202.84 765.53 202.19 765.99 201.51 766.47 C199.35 767.99 197.18 769.5 195 771 C193.48 772.06 191.97 773.12 190.45 774.18 C80.14 850.88 80.14 850.88 30.89 847.6 C24.8 846.34 19.51 844.26 16 839 C11.14 839.46 8.2 841.88 4.5 844.81 C-4.76 851.87 -14.77 857.47 -25 863 C-25.7 863.38 -26.39 863.76 -27.11 864.14 C-45.79 874.14 -65.75 881.87 -86 888 C-86.72 888.22 -87.43 888.44 -88.17 888.67 C-111.02 895.52 -135.74 900.44 -159.55 901.84 C-161.31 901.96 -163.07 902.1 -164.82 902.25 C-176.62 903.26 -188.42 903.2 -200.25 903.19 C-201.37 903.19 -202.48 903.19 -203.63 903.18 C-244.88 903.11 -284.28 897.43 -323.5 884.38 C-324.21 884.14 -324.92 883.9 -325.65 883.66 C-333.26 881.11 -340.74 878.45 -348 875 C-348.39 874.82 -348.39 874.82 -350.39 873.9 C-370.08 864.83 -388.97 854.77 -406.1 841.35 C-408 840 -408 840 -410.38 839.5 C-413.55 840.1 -414.99 841.63 -417.34 843.75 C-422.12 847.33 -428.28 847.21 -434 847 C-452.34 843.68 -470.74 835.91 -487.59 828.11 C-490.56 826.74 -493.55 825.38 -496.53 824.03 C-510.24 817.76 -523.79 811.28 -537 804 C-537.3 803.83 -537.3 803.83 -538.84 802.99 C-596.74 771.21 -596.74 771.21 -606 756 C-606.28 751.33 -605.81 747.39 -604.56 742.9 C-604.39 742.28 -604.22 741.67 -604.04 741.03 C-600.78 729.48 -597.19 718.02 -593.67 706.55 C-592.86 703.91 -592.05 701.26 -591.24 698.61 C-580.34 662.94 -580.34 662.94 -576.5 651.56 C-574.8 646.5 -573.22 641.43 -571.74 636.3 C-569.85 629.82 -567.89 623.36 -565.89 616.91 C-565.62 616.07 -565.36 615.23 -565.09 614.36 C-564.01 610.89 -562.94 607.42 -561.85 603.96 C-561.05 601.38 -560.25 598.8 -559.45 596.23 C-559.33 595.83 -559.33 595.83 -558.7 593.85 C-557.76 590.8 -557 588.21 -557 585 C-558.81 583.3 -560.77 581.88 -562.76 580.4 C-570.08 572.54 -570.71 564.18 -570.52 553.85 C-570.52 552.5 -570.51 551.15 -570.51 549.8 C-570.5 546.27 -570.45 542.74 -570.4 539.21 C-570.37 536.35 -570.35 533.5 -570.34 530.64 C-570.18 493.13 -570.18 493.13 -561.69 484.44 C-559.14 481.95 -556.68 479.77 -553.79 477.66 C-550.32 474.35 -550.13 472.66 -549.62 467.94 C-545.82 440.28 -535.04 413.51 -522 389 C-521.84 388.69 -521.84 388.69 -521.02 387.13 C-512.46 370.89 -501.73 355.4 -489.49 341.73 C-487.54 339.47 -485.69 337.13 -483.83 334.8 C-479.08 328.98 -473.95 323.66 -468.62 318.38 C-467.76 317.5 -466.89 316.62 -465.99 315.72 C-459.97 309.72 -453.65 304.29 -447 299 C-445.92 298.11 -444.84 297.22 -443.77 296.33 C-438.96 292.36 -434.13 288.54 -429 285 C-429.59 280.35 -430.87 276.56 -432.76 272.28 C-433.31 271.01 -433.85 269.73 -434.4 268.46 C-435.26 266.47 -436.13 264.49 -437 262.51 C-437.85 260.59 -438.68 258.65 -439.51 256.72 C-440.01 255.57 -440.51 254.43 -441.03 253.25 C-442.11 249.62 -442.03 247.62 -441 244 C-437.88 239.55 -434.76 236.75 -430 234 C-429.34 234 -428.68 234 -428 234 C-428.53 229.59 -429.57 226.5 -431.84 222.69 C-432.43 221.7 -433.02 220.7 -433.62 219.67 C-434.24 218.65 -434.86 217.62 -435.5 216.56 C-436.09 215.57 -436.68 214.58 -437.28 213.56 C-438.51 211.48 -439.75 209.4 -441 207.33 C-442.39 205.02 -443.76 202.71 -445.13 200.39 C-450.43 191.45 -456.02 182.75 -461.81 174.12 C-462.25 173.47 -462.68 172.82 -463.13 172.16 C-472.4 158.32 -481.76 144.63 -492.15 131.6 C-495.91 126.88 -499.57 122.08 -503.21 117.26 C-505.75 113.91 -508.32 110.59 -511.01 107.35 C-519.4 97.18 -519.4 97.18 -519.36 90.91 C-516.46 75.62 -488.34 58.49 -476.12 50.12 C-474.08 48.75 -472.04 47.37 -470 46 C-468.41 44.88 -466.83 43.75 -465.25 42.62 C-428.51 16.97 -388.27 -2.41 -346 -17 C-345.19 -17.28 -344.38 -17.56 -343.55 -17.85 C-307.93 -30.09 -269.73 -37.86 -232.21 -40.75 C-230.17 -40.91 -228.13 -41.08 -226.08 -41.28 C-149.35 -48.32 -69.58 -32.5 0 0 Z " fill="#040301" transform="translate(708,81)"/>
<path d="M0 0 C0.34 -0 0.34 -0 2.05 -0.01 C5.64 -0.02 9.23 -0.03 12.82 -0.04 C15.7 -0.04 18.59 -0.06 21.48 -0.08 C41.19 -0.23 60.51 0.69 80.11 2.85 C83.67 3.24 87.23 3.6 90.79 3.94 C94.31 4.3 97.82 4.74 101.32 5.2 C102.16 5.31 102.99 5.42 103.86 5.53 C131.44 9.23 159.24 15.58 185.66 24.33 C188.5 25.26 191.35 26.16 194.2 27.06 C267.65 50.53 267.65 50.53 288.32 71.2 C290.05 97.4 289.05 126.73 272.05 148.05 C269.87 150.51 267.62 152.87 265.32 155.2 C264.79 155.8 264.27 156.4 263.72 157.02 C258.91 162.33 252.92 166 246.94 169.87 C246.33 170.27 245.72 170.66 245.09 171.07 C243.44 172.13 241.77 173.16 240.11 174.19 C236.7 176.65 233.82 178.86 232.9 183.17 C232.68 185.55 232.58 187.91 232.53 190.31 C232.51 190.75 232.51 190.75 232.42 192.97 C232.3 195.78 232.22 198.58 232.13 201.39 C232.03 204.18 231.92 206.97 231.82 209.75 C231.75 211.49 231.69 213.22 231.64 214.95 C231.5 218.99 231.26 222.98 230.83 227 C230.18 233.08 230.01 239.15 229.82 245.26 C229.78 246.49 229.74 247.71 229.7 248.97 C229.57 252.86 229.44 256.75 229.32 260.64 C229.16 265.76 228.99 270.89 228.82 276.01 C228.8 276.59 228.8 276.59 228.71 279.52 C228.51 285.66 228.14 291.74 227.54 297.85 C227.28 300.61 227.15 303.36 227.07 306.13 C227.04 307.16 227.01 308.19 226.98 309.25 C226.95 310.33 226.92 311.4 226.88 312.52 C226.79 314.88 226.7 317.25 226.6 319.62 C226.42 324.17 226.29 328.72 226.21 333.27 C226.16 335.31 226.1 337.34 226.03 339.37 C225.93 341.95 225.88 344.53 225.86 347.11 C225.56 353.81 224.78 357.56 219.74 362.18 C217.96 363.55 216.16 364.9 214.32 366.2 C212.93 367.3 211.54 368.4 210.14 369.5 C208.77 370.52 207.39 371.52 206.01 372.52 C205.25 373.06 204.49 373.61 203.71 374.17 C171.4 396.91 134.13 410.5 95.82 418.95 C95.15 419.1 94.47 419.25 93.78 419.41 C80.78 422.26 67.91 424.31 54.63 425.27 C52.52 425.42 50.42 425.58 48.31 425.74 C47.4 425.8 46.48 425.87 45.54 425.94 C43.32 426.2 43.32 426.2 41.32 427.2 C39.71 427.31 38.09 427.35 36.47 427.36 C35.46 427.37 34.45 427.38 33.4 427.39 C32.29 427.4 31.18 427.4 30.04 427.41 C28.89 427.41 27.74 427.42 26.55 427.42 C24.08 427.43 21.62 427.44 19.15 427.44 C15.48 427.45 11.82 427.48 8.15 427.52 C-8.16 427.59 -24.59 427.11 -40.68 424.2 C-41.01 423.87 -41.34 423.54 -41.68 423.2 C-44.95 422.75 -48.23 422.38 -51.51 422.04 C-52.21 421.96 -52.91 421.88 -53.63 421.8 C-53.95 421.77 -53.95 421.77 -55.55 421.6 C-57.68 421.2 -57.68 421.2 -60.45 420.25 C-64.09 419.07 -67.71 418.49 -71.47 417.91 C-80.62 416.4 -89.23 413.81 -97.99 410.83 C-98.76 410.57 -99.53 410.31 -100.33 410.04 C-122.32 402.61 -143.37 393.21 -162.68 380.2 C-163.3 379.79 -163.92 379.38 -164.56 378.95 C-167.53 376.95 -170.43 374.9 -173.27 372.72 C-175.62 370.92 -178.01 369.42 -180.59 367.96 C-185.81 364.74 -189.79 361.49 -191.45 355.38 C-192.58 347.84 -192.59 340.25 -192.63 332.64 C-192.68 325.67 -193.11 318.71 -193.49 311.75 C-193.62 309.24 -193.74 306.73 -193.86 304.22 C-194.44 291.97 -195.22 279.75 -196.04 267.52 C-197.08 252.04 -197.94 236.59 -198.3 221.08 C-198.32 220.32 -198.34 219.56 -198.36 218.77 C-198.5 212.75 -198.63 206.73 -198.75 200.71 C-198.81 197.75 -198.9 194.79 -198.99 191.83 C-199 191.43 -199 191.43 -199.02 189.4 C-199.22 184.19 -200.28 180.25 -203.68 176.2 C-206.05 174.15 -208.59 172.49 -211.24 170.83 C-212.68 169.88 -214.12 168.92 -215.56 167.96 C-216.27 167.49 -216.97 167.03 -217.69 166.55 C-235.25 154.67 -247.54 137.58 -251.62 116.66 C-253.01 108.87 -253.98 101.08 -254.68 93.2 C-254.76 92.3 -254.85 91.4 -254.93 90.48 C-256.32 73.7 -256.32 73.7 -252.79 68.32 C-249.87 66.16 -246.98 64.71 -243.68 63.2 C-242.49 62.52 -241.3 61.82 -240.12 61.11 C-223.25 50.95 -205.03 43.23 -186.68 36.2 C-186.31 36.06 -186.31 36.06 -184.46 35.34 C-170.55 29.95 -156.34 25.75 -141.98 21.74 C-140.4 21.3 -138.83 20.85 -137.25 20.41 C-128.99 18.06 -120.86 15.89 -112.35 14.63 C-108.02 13.94 -103.8 12.84 -99.55 11.77 C-89.99 9.42 -80.42 7.63 -70.68 6.2 C-69.52 6.03 -68.37 5.86 -67.18 5.68 C-58.84 4.52 -50.48 3.59 -42.12 2.64 C-41.56 2.58 -41.56 2.58 -38.75 2.26 C-25.83 0.82 -13 0.04 0 0 Z " fill="#FDFDFD" transform="translate(493.6796875,536.796875)"/>
<path d="M0 0 C0.6 -0 0.6 -0 3.61 -0 C25.5 0.02 47.26 0.38 68.95 3.61 C72.63 4.15 76.31 4.67 80 5.17 C99.29 7.81 118.5 10.5 137.53 14.68 C139.6 15.13 141.67 15.54 143.75 15.95 C153.27 17.85 162.55 20.56 171.85 23.3 C175.06 24.24 178.28 25.18 181.49 26.11 C219.12 37.09 219.12 37.09 232.07 43.41 C237.41 45.97 242.91 48.16 248.38 50.44 C267.82 58.61 286.52 67.79 304.88 78.19 C305.78 78.7 306.69 79.22 307.63 79.75 C318.31 85.83 328.73 92.26 338.94 99.12 C339.86 99.74 340.78 100.35 341.73 100.99 C352.94 108.66 352.94 108.66 354.73 115.43 C354.84 116.63 354.95 117.83 355.06 119.06 C355.13 119.74 355.19 120.41 355.26 121.11 C355.41 122.62 355.54 124.14 355.66 125.66 C355.89 128.42 356.16 131.18 356.43 133.94 C357.33 143.38 358.07 152.83 358.25 162.31 C358.28 163.03 358.3 163.74 358.33 164.48 C358.35 169.53 357.09 172.34 353.88 176.19 C351.55 178.05 351.55 178.05 349.19 179.5 C348.4 179.99 347.61 180.48 346.8 180.99 C346.17 181.38 345.53 181.78 344.88 182.19 C343.31 183.75 343.62 185.25 343.55 187.43 C343.62 194.16 345.8 199.98 348.06 206.25 C348.9 208.67 349.74 211.09 350.57 213.51 C350.98 214.67 351.38 215.83 351.79 217.02 C353.1 220.84 354.27 224.68 355.38 228.56 C357.59 236.31 359.98 244 362.38 251.69 C365.41 261.41 368.39 271.14 371.22 280.93 C371.99 283.59 372.77 286.25 373.55 288.91 C376.47 298.86 379.35 308.81 382.1 318.79 C383.52 323.94 384.99 329.07 386.5 334.19 C386.71 334.89 386.92 335.6 387.13 336.33 C388.01 339.33 388.92 342.32 389.86 345.3 C390.13 346.17 390.4 347.04 390.69 347.94 C390.92 348.65 391.15 349.37 391.39 350.11 C391.97 352.62 392.11 354.62 391.88 357.19 C387.02 363.5 378.75 367.82 372.19 372.12 C371.11 372.83 370.04 373.54 368.93 374.27 C365.92 376.25 362.9 378.22 359.88 380.19 C359.21 380.62 358.55 381.05 357.87 381.49 C354.26 383.81 350.58 386.02 346.88 388.19 C346.08 388.65 345.29 389.12 344.48 389.59 C327.4 399.58 309.91 408.74 291.52 416.09 C288.58 417.31 285.74 418.68 282.88 420.06 C274.86 423.8 266.53 426.59 258.16 429.41 C256.18 430.08 254.21 430.8 252.24 431.52 C246.2 433.7 241.31 434.91 234.88 434.19 C232.74 430.99 232.62 430.19 232.61 426.52 C232.61 425.55 232.6 424.58 232.6 423.59 C232.61 422.51 232.62 421.44 232.63 420.34 C232.63 419.2 232.64 418.06 232.65 416.89 C232.81 401.31 233.77 385.76 234.67 370.21 C235.05 363.71 235.41 357.21 235.77 350.7 C235.86 349.12 235.95 347.53 236.04 345.94 C236.67 334.59 237.17 323.24 237.55 311.88 C237.77 305.38 238.15 298.92 238.67 292.43 C238.92 288.54 238.98 284.67 239.02 280.78 C239.04 279.34 239.05 277.91 239.07 276.47 C239.1 274.28 239.13 272.09 239.13 269.89 C239.13 267.73 239.16 265.57 239.2 263.4 C239.21 262.14 239.22 260.87 239.23 259.56 C240.23 254.31 243.41 252.21 247.64 249.27 C248.6 248.66 249.57 248.06 250.56 247.44 C256.55 243.53 261.72 239.13 266.88 234.19 C267.5 233.61 268.13 233.04 268.77 232.45 C273.9 227.6 277.88 221.98 281.88 216.19 C282.54 215.28 283.21 214.38 283.89 213.44 C296.7 192.44 296.36 164.9 296.88 141.19 C301.74 141.84 306.2 142.76 310.88 144.19 C309.08 133.61 300.44 127.43 292.2 121.49 C277.93 111.5 262.62 103.23 247.12 95.34 C245.19 94.35 243.27 93.35 241.34 92.34 C236.62 89.91 231.88 87.75 226.91 85.86 C225.77 85.43 224.63 85 223.45 84.55 C222.86 84.32 222.86 84.32 219.88 83.19 C217.57 82.29 215.27 81.4 212.96 80.5 C199.87 75.45 186.82 70.64 173.29 66.87 C170.72 66.14 168.17 65.39 165.62 64.64 C163.83 64.11 162.04 63.59 160.25 63.06 C159.48 62.83 158.7 62.6 157.9 62.37 C116.75 50.5 71.54 43.57 28.76 43.22 C25.82 43.2 22.89 43.15 19.96 43.1 C-18.35 42.39 -56.36 44.43 -94.12 51.19 C-95.67 51.45 -97.21 51.71 -98.75 51.96 C-102.89 52.66 -107.01 53.41 -111.12 54.19 C-111.92 54.34 -112.72 54.49 -113.54 54.64 C-123.23 56.47 -132.8 58.49 -142.31 61.13 C-145.04 61.89 -147.76 62.61 -150.5 63.3 C-162.87 66.45 -175.01 70.16 -187.12 74.19 C-187.87 74.44 -188.62 74.68 -189.4 74.94 C-201.87 79.11 -214.01 84.08 -226.12 89.19 C-226.91 89.51 -227.7 89.84 -228.5 90.18 C-289.75 115.83 -289.75 115.83 -302.12 138.19 C-302.5 139.85 -302.84 141.51 -303.12 143.19 C-302.31 142.96 -301.49 142.73 -300.64 142.5 C-299.56 142.21 -298.49 141.92 -297.38 141.62 C-296.31 141.33 -295.24 141.04 -294.14 140.75 C-291.19 140.2 -289.91 140.37 -287.12 141.19 C-287.11 141.82 -287.1 142.46 -287.08 143.12 C-286.26 175.63 -283.9 206.18 -261.12 231.19 C-260.52 231.87 -259.92 232.55 -259.3 233.25 C-252.48 240.57 -243.72 247.1 -234.96 251.93 C-232.12 254.19 -232.12 254.19 -231.28 257.19 C-231.23 258.37 -231.18 259.54 -231.14 260.75 C-231.1 261.4 -231.07 262.05 -231.04 262.72 C-230.93 264.88 -230.87 267.03 -230.81 269.19 C-230.75 270.71 -230.68 272.23 -230.61 273.75 C-230.41 278.56 -230.26 283.37 -230.12 288.19 C-230.1 288.97 -230.08 289.75 -230.06 290.56 C-229.99 292.88 -229.93 295.21 -229.86 297.53 C-229.84 298.3 -229.82 299.07 -229.8 299.86 C-229.7 303.52 -229.61 307.17 -229.55 310.82 C-229.39 319.38 -228.87 327.87 -228.16 336.4 C-226.96 351.02 -226.49 365.65 -226.06 380.31 C-225.95 384.19 -225.83 388.07 -225.71 391.95 C-225.63 394.34 -225.56 396.72 -225.49 399.11 C-225.31 404.87 -224.93 410.48 -224.12 416.19 C-223.99 418.6 -223.91 421.02 -223.88 423.44 C-223.86 424.03 -223.86 424.03 -223.8 427.02 C-224.12 430.19 -224.12 430.19 -225.14 432.61 C-227.68 434.63 -229.71 434.69 -232.89 434.52 C-236.85 433.93 -240.42 432.54 -244.12 431.06 C-245.82 430.41 -247.51 429.76 -249.2 429.11 C-250.03 428.78 -250.86 428.46 -251.72 428.12 C-253.87 427.29 -256.02 426.49 -258.18 425.7 C-301.24 410.09 -341.05 387.95 -378.12 361.19 C-378.87 360.71 -379.61 360.24 -380.38 359.75 C-382.12 358.19 -382.12 358.19 -382.49 356.37 C-381.34 347.1 -378.38 338.27 -375.62 329.38 C-375.08 327.58 -374.53 325.78 -373.98 323.99 C-372.38 318.72 -370.75 313.45 -369.12 308.19 C-368.69 306.76 -368.25 305.34 -367.81 303.91 C-365.95 297.89 -364.08 291.87 -362.2 285.86 C-360.82 281.44 -359.46 277.01 -358.11 272.58 C-354.35 260.21 -350.4 247.93 -346.28 235.68 C-343.76 228.18 -341.42 220.66 -339.25 213.05 C-338.47 210.31 -337.61 207.59 -336.71 204.88 C-336.48 204.17 -336.25 203.46 -336 202.72 C-335.36 200.77 -334.7 198.82 -334.04 196.87 C-332.99 192.65 -332.78 189.51 -333.12 185.19 C-335.16 183.05 -336.72 181.77 -339.12 180.19 C-340.57 179.13 -342.01 178.07 -343.44 177 C-344.11 176.51 -344.79 176.02 -345.49 175.52 C-347.12 174.19 -347.12 174.19 -348.12 172.19 C-348.22 170.65 -348.25 169.1 -348.25 167.56 C-348.26 166.6 -348.26 165.64 -348.26 164.65 C-348.26 163.6 -348.26 162.55 -348.26 161.48 C-348.26 160.4 -348.26 159.32 -348.26 158.21 C-348.26 155.92 -348.26 153.63 -348.26 151.33 C-348.25 147.86 -348.26 144.39 -348.26 140.92 C-348.26 138.69 -348.26 136.46 -348.26 134.23 C-348.26 133.2 -348.26 132.18 -348.26 131.12 C-348.25 125.97 -348.12 120.83 -347.82 115.69 C-347.76 114.74 -347.71 113.78 -347.65 112.79 C-346.63 107.74 -343.07 105.19 -339.12 102.19 C-338.65 101.82 -338.65 101.82 -336.22 99.93 C-317.08 85.55 -295.69 73.51 -274.12 63.19 C-273.29 62.79 -272.45 62.39 -271.59 61.97 C-247.75 50.65 -223.22 40.4 -198.12 32.19 C-197.37 31.93 -196.61 31.68 -195.82 31.42 C-184.47 27.65 -173 24.51 -161.4 21.56 C-157.35 20.52 -153.37 19.37 -149.38 18.12 C-134.36 13.74 -118.54 11.72 -103.12 9.19 C-102.55 9.09 -102.55 9.09 -99.64 8.61 C-85.19 6.24 -70.75 4 -56.19 2.44 C-55.12 2.32 -54.05 2.21 -52.95 2.09 C-35.3 0.29 -17.73 -0.01 0 0 Z " fill="#EDAE20" transform="translate(506.125,472.8125)"/>
<path d="M0 0 C2.25 0.67 4.5 1.29 6.77 1.89 C13.84 3.79 20.75 5.69 27.49 8.59 C30.79 9.91 34.16 10.97 37.54 12.05 C42.67 13.72 47.45 15.65 52.21 18.18 C55.96 20.08 59.81 21.74 63.67 23.43 C96.38 37.83 125.28 55.77 151.04 80.61 C151.48 81.03 151.48 81.03 153.67 83.12 C158.78 88.08 163.35 93.36 167.74 98.96 C168.66 100.13 169.58 101.29 170.51 102.44 C183.2 118.23 193.47 135.27 202.04 153.61 C202.19 153.92 202.19 153.92 202.94 155.5 C210.8 172.04 219.04 192.06 219.04 210.61 C215.62 209.94 213.01 208.61 209.99 206.88 C209.49 206.59 209.49 206.59 206.97 205.16 C206.44 204.85 206.44 204.85 203.73 203.3 C191.64 196.46 179.45 189.88 167.04 183.61 C166.55 183.36 166.55 183.36 164.06 182.11 C148.74 174.42 133.13 167.87 117.11 161.79 C114.5 160.79 111.91 159.75 109.33 158.69 C88.31 150.04 66.12 144.43 44.07 139.09 C43.42 138.93 42.76 138.77 42.08 138.6 C40.3 138.17 38.52 137.75 36.73 137.32 C34.04 136.61 34.04 136.61 32.04 135.61 C30.71 135.46 29.38 135.34 28.04 135.24 C24.66 134.9 21.7 134.26 18.48 133.18 C12.98 131.42 7.47 130.82 1.75 130.24 C-2.25 129.77 -6.17 129 -10.13 128.21 C-19.28 126.43 -28.5 125.35 -37.77 124.31 C-40.59 123.99 -43.4 123.66 -46.22 123.33 C-51.46 122.73 -56.71 122.16 -61.96 121.61 C-63.11 121.49 -64.26 121.37 -65.44 121.25 C-78.07 120.15 -90.79 120.42 -103.46 120.43 C-104.73 120.43 -106.01 120.43 -107.32 120.43 C-125.95 120.44 -144.4 120.76 -162.96 122.61 C-164.05 122.72 -165.14 122.82 -166.26 122.92 C-192.54 125.4 -218.45 129.73 -244.27 135.11 C-244.72 135.21 -244.72 135.21 -246.98 135.67 C-263.11 139.04 -279.2 142.71 -294.77 148.18 C-300.47 150.13 -306.14 151.99 -311.96 153.55 C-321.53 156.22 -330.73 159.93 -339.96 163.61 C-340.88 163.98 -341.81 164.35 -342.76 164.73 C-372.22 176.55 -400.71 190.2 -427.86 206.67 C-432.75 209.61 -432.75 209.61 -434.96 209.61 C-435.19 204.29 -434.42 199.78 -432.83 194.74 C-432.61 194.01 -432.39 193.28 -432.16 192.53 C-430.5 187.17 -428.73 181.85 -426.89 176.55 C-426.78 176.21 -426.78 176.21 -426.19 174.5 C-424.69 170.29 -422.89 166.36 -420.85 162.39 C-419.83 160.36 -419.03 158.31 -418.27 156.18 C-410.33 136.1 -397.67 117.18 -383.96 100.61 C-383.47 100.03 -382.99 99.44 -382.49 98.84 C-371.43 85.57 -359.63 73.2 -345.96 62.61 C-344.7 61.61 -343.45 60.6 -342.2 59.6 C-331.68 51.24 -320.6 44.29 -308.96 37.61 C-307.55 36.79 -306.14 35.97 -304.73 35.14 C-291.68 27.58 -278.23 21.22 -264.03 16.13 C-260.72 14.93 -257.49 13.59 -254.25 12.21 C-235.09 4.18 -215.16 -1.18 -194.93 -5.72 C-193.16 -6.12 -191.39 -6.52 -189.63 -6.95 C-129.9 -21.16 -58.62 -18.1 0 0 Z " fill="#F3B422" transform="translate(616.95654296875,336.38671875)"/>
<path d="M0 0 C0.94 0 1.88 0 2.84 0 C30.76 0.08 57.25 1.6 84.56 7.52 C87.93 8.23 91.31 8.8 94.72 9.32 C107.92 11.35 121.4 15.09 133.75 20.19 C133.01 25.02 131.28 29.39 129.56 33.94 C128.92 35.65 128.29 37.35 127.65 39.06 C127.33 39.92 127.01 40.78 126.68 41.66 C125.3 45.41 123.95 49.17 122.62 52.94 C122.5 53.28 122.5 53.28 121.88 55.04 C119.85 60.84 117.92 66.68 116.02 72.53 C115.04 75.35 113.99 78.08 112.86 80.84 C110.47 86.73 108.58 92.75 106.69 98.81 C104.74 105.03 102.8 111.21 100.46 117.29 C99.13 120.84 98.01 124.45 96.88 128.06 C96.62 128.89 96.36 129.71 96.09 130.56 C94.14 136.81 92.36 143.09 90.65 149.41 C89.14 154.93 87.45 160.37 85.69 165.81 C82.99 174.19 80.78 182.62 78.75 191.19 C78.42 192.52 78.09 193.86 77.75 195.19 C75.25 195.07 72.75 194.95 70.25 194.81 C69.9 194.8 69.9 194.8 68.14 194.72 C67.44 194.68 66.75 194.64 66.03 194.6 C65.4 194.57 64.77 194.54 64.13 194.51 C61.75 194.19 61.75 194.19 58.12 193.23 C53.31 191.99 48.51 191.5 43.57 191.08 C42.58 190.99 41.59 190.91 40.57 190.82 C28.85 189.92 17.14 189.89 5.39 189.93 C1.62 189.94 -2.14 189.93 -5.91 189.91 C-24.53 189.9 -42.57 190.88 -60.83 194.59 C-65.08 195.33 -68.95 195.42 -73.25 195.19 C-76.03 187.26 -78.04 179.23 -80 171.07 C-81.29 165.8 -82.7 160.66 -84.48 155.53 C-86.06 150.74 -87.3 145.86 -88.62 141 C-90.84 132.96 -93.16 125.06 -96.11 117.25 C-99.11 109.2 -101.53 100.99 -103.91 92.74 C-105.41 87.66 -107.17 82.81 -109.18 77.91 C-111.29 72.54 -113.02 67.04 -114.81 61.56 C-120.41 44.52 -120.41 44.52 -123.89 36.27 C-124.16 35.63 -124.42 35 -124.7 34.35 C-125.24 33.06 -125.79 31.77 -126.35 30.48 C-127.43 27.87 -128.27 25.71 -128.17 22.86 C-125.61 18.21 -117.7 17.3 -112.93 15.89 C-105.09 13.64 -97.27 11.74 -89.25 10.19 C-86.95 9.72 -84.64 9.25 -82.34 8.79 C-54.95 3.3 -27.98 -0.04 0 0 Z " fill="#E9171A" transform="translate(509.25,59.8125)"/>
<path d="M0 0 C5.53 1.22 10.39 2.97 15.49 5.43 C19.01 7.08 22.57 8.59 26.15 10.09 C43.79 17.49 60.6 26.04 76.91 36.03 C77.24 36.23 77.24 36.23 78.94 37.27 C97.97 48.86 115.79 61.75 132.91 76.03 C133.8 76.75 134.7 77.46 135.62 78.2 C136.46 78.88 137.3 79.57 138.16 80.28 C138.9 80.88 139.65 81.49 140.42 82.11 C141.91 84.03 141.91 84.03 141.94 86.4 C140.6 89.8 138.52 92.18 136.09 94.84 C129.59 102.26 123.73 110.08 117.91 118.03 C117.38 118.74 116.86 119.46 116.32 120.19 C93.8 150.93 73.78 182.95 54.91 216.03 C51.25 215.45 48.47 214.45 45.23 212.66 C44.33 212.17 43.43 211.69 42.51 211.18 C41.55 210.66 40.58 210.13 39.59 209.59 C27.69 203.23 15.45 198.01 2.91 193.03 C1.15 192.33 -0.6 191.64 -2.36 190.94 C-3.17 190.61 -3.99 190.29 -4.83 189.95 C-6.8 189.15 -8.76 188.3 -10.71 187.43 C-14.49 185.87 -18.28 184.7 -22.22 183.59 C-23.73 183.16 -25.24 182.72 -26.75 182.29 C-27.12 182.18 -27.12 182.18 -28.99 181.65 C-31.91 180.79 -34.81 179.88 -37.72 178.97 C-44.79 176.77 -51.93 174.89 -59.09 173.03 C-59.03 171.3 -58.94 169.57 -58.84 167.84 C-58.8 166.88 -58.75 165.92 -58.7 164.93 C-57.79 159.1 -55.88 153.64 -54.09 148.03 C-53.47 145.95 -52.85 143.86 -52.23 141.77 C-51.93 140.73 -51.62 139.68 -51.3 138.61 C-50.99 137.53 -50.67 136.45 -50.34 135.34 C-47.53 125.83 -44.69 116.33 -41.78 106.84 C-41.46 105.78 -41.13 104.71 -40.8 103.61 C-40.64 103.1 -40.64 103.1 -39.86 100.55 C-39.59 99.68 -39.32 98.8 -39.04 97.9 C-38.29 95.63 -37.5 93.41 -36.65 91.18 C-35.13 87.18 -33.76 83.14 -32.42 79.08 C-31.92 77.57 -31.42 76.05 -30.92 74.54 C-30.66 73.76 -30.4 72.98 -30.14 72.18 C-26.5 61.19 -22.86 50.2 -19.03 39.28 C-18.9 38.91 -18.9 38.91 -18.24 37.02 C-15.35 28.86 -12.26 20.78 -9.09 12.72 C-8.75 11.83 -8.41 10.93 -8.05 10.01 C-7.72 9.16 -7.38 8.3 -7.03 7.42 C-6.73 6.65 -6.43 5.88 -6.12 5.08 C-4.66 2.16 -3.42 0.05 0 0 Z " fill="#EA1619" transform="translate(667.09375,87.96875)"/>
<path d="M0 0 C4.1 5.3 5.93 12.47 7.92 18.79 C8.91 21.73 10.04 24.51 11.28 27.35 C14.47 34.93 17.01 42.69 19.56 50.5 C20.04 51.93 20.51 53.37 20.98 54.8 C21.9 57.58 22.82 60.36 23.73 63.14 C25.47 68.44 27.24 73.72 29 79 C29.51 80.54 30.03 82.08 30.54 83.62 C31.57 86.71 32.61 89.79 33.65 92.88 C37.04 102.93 40.31 113 43.2 123.21 C44.01 126.03 44.82 128.85 45.64 131.67 C46.45 134.5 47.27 137.33 48.07 140.17 C48.48 141.58 48.88 142.98 49.29 144.39 C51.74 152.86 53.79 161.25 55 170 C54.31 170.19 53.62 170.38 52.91 170.58 C16.35 180.68 -22.62 191.67 -54.62 212.72 C-55.4 213.14 -56.19 213.57 -57 214 C-60.65 212.78 -61.04 211.45 -62.7 208.14 C-63.05 207.44 -63.39 206.73 -63.75 206 C-82.91 168.61 -107.92 133.45 -133.88 100.5 C-134.1 100.21 -134.1 100.21 -135.25 98.75 C-137.16 96.32 -139.08 93.9 -141.05 91.53 C-141.61 90.84 -142.17 90.15 -142.75 89.44 C-143.22 88.88 -143.69 88.32 -144.17 87.75 C-145 86 -145 86 -144.94 83.59 C-140.97 72.66 -123.46 63.35 -114.46 56.79 C-112.26 55.19 -110.07 53.56 -107.88 51.94 C-25.3 -8.74 -25.3 -8.74 0 0 Z " fill="#E9171A" transform="translate(360,90)"/>
<path d="M0 0 C1.71 0.46 3.42 0.92 5.12 1.38 C6.08 1.63 7.03 1.89 8.01 2.15 C11.04 3.01 14.01 3.99 17 5 C18.41 40.57 19.78 76.14 21.12 111.72 C21.43 120 21.74 128.27 22.06 136.55 C22.29 142.51 22.51 148.47 22.74 154.42 C22.87 157.93 23 161.44 23.14 164.95 C23.67 178.97 24.19 192.97 24 207 C-7.69 221.35 -7.69 221.35 -23.75 227.18 C-26.22 228.08 -28.68 229.01 -31.14 229.93 C-32.91 230.58 -34.67 231.23 -36.44 231.88 C-37.25 232.19 -38.07 232.5 -38.91 232.82 C-44.09 234.68 -49.49 236.21 -55 235 C-57.13 231.8 -57.26 231 -57.26 227.34 C-57.27 226.37 -57.27 225.4 -57.27 224.4 C-57.27 223.33 -57.26 222.26 -57.25 221.15 C-57.24 220.01 -57.24 218.88 -57.23 217.7 C-57.07 202.12 -56.1 186.57 -55.2 171.02 C-54.83 164.52 -54.47 158.02 -54.11 151.52 C-54.02 149.93 -53.93 148.34 -53.84 146.76 C-53.2 135.4 -52.7 124.06 -52.32 112.69 C-52.1 106.19 -51.72 99.73 -51.2 93.24 C-50.96 89.35 -50.9 85.48 -50.86 81.59 C-50.84 80.15 -50.82 78.72 -50.8 77.28 C-50.77 75.09 -50.75 72.9 -50.75 70.71 C-50.75 68.54 -50.71 66.38 -50.67 64.21 C-50.66 62.95 -50.65 61.68 -50.64 60.37 C-49.64 55.12 -46.47 53.02 -42.24 50.08 C-41.27 49.47 -40.31 48.87 -39.31 48.25 C-33.32 44.34 -28.16 39.94 -23 35 C-22.37 34.43 -21.75 33.85 -21.11 33.26 C-15.97 28.41 -12.03 22.78 -8 17 C-7.26 16.01 -6.51 15.02 -5.75 14 C-3.17 9.58 -1.62 4.84 0 0 Z " fill="#F2B223" transform="translate(796,672)"/>
<path d="M0 0 C10.48 4.72 20.37 9.69 30 16 C30.99 16.64 31.99 17.27 33.01 17.93 C49.96 28.96 65.29 42.18 80 56 C80.66 56.61 81.31 57.23 81.99 57.86 C86.26 61.99 89.98 66.51 93.7 71.14 C95.14 72.94 96.61 74.71 98.12 76.45 C115.67 96.93 128.2 121.69 138.38 146.5 C138.55 146.93 138.55 146.93 139.46 149.11 C139.79 149.93 140.12 150.75 140.46 151.59 C140.76 152.32 141.05 153.05 141.36 153.8 C142.08 156.29 142.11 158.42 142 161 C135.86 157.98 129.77 154.89 123.73 151.66 C101.71 139.92 79.35 129.76 56 121 C56.33 120.34 56.66 119.68 57 119 C56.55 116.5 56.55 116.5 55.75 113.44 C55.5 112.45 55.24 111.45 54.98 110.43 C49.49 91.27 41.4 72.56 32 55 C31.77 54.56 31.77 54.56 30.59 52.31 C21.75 35.5 12.41 19.02 1.11 3.71 C0 2 0 2 0 0 Z " fill="#D19013" transform="translate(675,376)"/>
<path d="M0 0 C0.81 -0 1.62 -0.01 2.46 -0.01 C16.65 -0.05 30.6 1.07 44.69 2.75 C45.63 2.86 46.57 2.97 47.53 3.09 C50.2 3.41 52.87 3.74 55.54 4.09 C56.33 4.19 57.12 4.28 57.94 4.39 C61.91 4.93 65.42 5.67 69.06 7.38 C68.37 14.8 67.05 22.01 65.56 29.31 C65.34 30.45 65.11 31.58 64.88 32.75 C63.19 41.11 63.19 41.11 62.06 43.38 C52.95 42.92 43.98 42.22 34.95 40.88 C22.92 39.33 10.99 39.18 -1.12 39.19 C-2.05 39.19 -2.98 39.19 -3.94 39.19 C-22.79 39.2 -41.41 40.09 -60.05 43.11 C-62.96 43.38 -65.1 43.01 -67.94 42.38 C-68.79 38.42 -69.61 34.46 -70.44 30.5 C-70.68 29.39 -70.91 28.28 -71.16 27.14 C-72.54 20.45 -73.29 14.2 -72.94 7.38 C-68.99 5.59 -65.37 4.88 -61.08 4.34 C-60.42 4.26 -59.76 4.17 -59.08 4.09 C-57.68 3.91 -56.28 3.74 -54.88 3.57 C-52.8 3.32 -50.73 3.05 -48.65 2.79 C-32.5 0.76 -16.27 0.09 0 0 Z " fill="#F6BC2B" transform="translate(512.9375,265.625)"/>
<path d="M0 0 C0.88 -0 1.77 -0.01 2.68 -0.01 C5.65 -0.02 8.63 -0.03 11.6 -0.03 C13.73 -0.04 15.86 -0.04 17.98 -0.05 C23.78 -0.07 29.57 -0.08 35.36 -0.09 C38.98 -0.09 42.59 -0.1 46.21 -0.1 C57.52 -0.12 68.83 -0.14 80.14 -0.15 C93.21 -0.15 106.27 -0.18 119.34 -0.22 C129.43 -0.25 139.52 -0.27 149.61 -0.27 C155.64 -0.27 161.67 -0.28 167.7 -0.31 C173.38 -0.33 179.05 -0.33 184.72 -0.32 C186.81 -0.32 188.89 -0.33 190.97 -0.34 C193.81 -0.36 196.66 -0.35 199.5 -0.34 C199.91 -0.35 199.91 -0.35 201.99 -0.37 C207.62 -0.31 210.94 0.91 215.57 4.15 C217.29 7.59 216.94 11.37 216.57 15.15 C214.94 18.78 213.91 19.92 210.57 22.15 C207.64 22.35 204.81 22.43 201.89 22.42 C201.44 22.42 201.44 22.42 199.17 22.44 C196.15 22.45 193.13 22.45 190.11 22.45 C187.95 22.46 185.79 22.47 183.63 22.48 C177.76 22.5 171.88 22.51 166 22.51 C162.34 22.52 158.67 22.52 155 22.53 C142.21 22.56 129.41 22.57 116.62 22.57 C104.69 22.58 92.75 22.61 80.82 22.65 C70.58 22.68 60.34 22.7 50.1 22.7 C43.99 22.7 37.87 22.71 31.75 22.74 C25.99 22.76 20.24 22.77 14.49 22.75 C12.37 22.75 10.26 22.75 8.15 22.77 C5.26 22.79 2.38 22.78 -0.5 22.76 C-0.92 22.77 -0.92 22.77 -3.04 22.8 C-7.36 22.74 -8.94 22.54 -12.43 19.73 C-15.22 16.13 -15.82 13.87 -15.79 9.25 C-15.16 5.53 -13.09 3.74 -10.43 1.15 C-7.17 -0.48 -3.58 -0 0 0 Z " fill="#030303" transform="translate(410.4315643310547,772.8528289794922)"/>
<path d="M0 0 C7.98 0.38 15.42 2.26 23.07 4.45 C24.95 4.99 26.84 5.5 28.72 6.01 C34.83 7.69 40.69 9.56 46.53 12.01 C49.21 13.09 51.93 13.95 54.69 14.81 C61.28 16.98 67.47 19.88 73.71 22.9 C76.29 24.14 78.88 25.34 81.47 26.55 C93.37 32.1 104.91 37.95 116 45 C116.65 45.41 117.3 45.82 117.96 46.24 C128.38 52.92 128.38 52.92 130.04 55.8 C129.97 59.32 128.36 62.17 126.81 65.25 C126.49 65.92 126.17 66.58 125.83 67.27 C124.9 69.18 123.95 71.09 123 73 C122.55 73.91 122.1 74.82 121.64 75.76 C120.77 77.51 119.89 79.26 119 81 C114.19 80.45 110.47 78.94 106.25 76.69 C73.57 59.89 39.79 46.83 4.06 38.26 C0.3 37.35 -3.36 36.31 -7 35 C-6.35 27.9 -5.06 21.08 -3.5 14.12 C-3.27 13.09 -3.05 12.06 -2.82 11 C-1.15 3.46 -1.15 3.46 0 0 Z " fill="#E7AA23" transform="translate(602,278)"/>
<path d="M0 0 C0.85 3.95 1.68 7.91 2.5 11.88 C2.74 12.98 2.98 14.09 3.22 15.23 C4.6 21.92 5.35 28.17 5 35 C4.22 35.21 3.44 35.42 2.63 35.63 C0.8 36.12 -1.03 36.6 -2.86 37.1 C-7.19 38.26 -11.53 39.39 -15.87 40.51 C-46.43 48.43 -77.39 58.93 -105.14 74.26 C-105.82 74.63 -106.5 75 -107.19 75.39 C-108.49 76.11 -109.79 76.85 -111.08 77.6 C-115.43 80.04 -115.43 80.04 -118.05 79.87 C-120.8 78.64 -121.2 77.23 -122.36 74.48 C-122.56 74.02 -122.56 74.02 -123.55 71.69 C-123.95 70.72 -124.34 69.75 -124.75 68.75 C-125.16 67.79 -125.57 66.84 -126 65.86 C-129.52 57.44 -129.52 57.44 -129 53 C-126.94 51.18 -125.13 49.86 -122.81 48.44 C-122.15 48.02 -121.49 47.6 -120.82 47.16 C-105.76 37.69 -90.2 28.6 -73.64 22.05 C-71.15 21.06 -68.68 20.05 -66.21 19.04 C-56.57 15.09 -46.94 11.53 -36.95 8.59 C-34.93 7.98 -32.92 7.34 -30.91 6.69 C-9.82 -0.1 -9.82 -0.1 0 0 Z " fill="#F8BB1E" transform="translate(420,278)"/>
<path d="M0 0 C0.33 0 0.66 0 1 0 C2.24 18.87 3.25 37.72 3.57 56.64 C3.74 65.19 4.26 73.68 4.96 82.21 C6.16 96.84 6.63 111.46 7.06 126.12 C7.18 130.01 7.3 133.89 7.42 137.77 C7.49 140.15 7.57 142.53 7.63 144.92 C7.81 150.68 8.2 156.29 9 162 C9.13 164.41 9.22 166.83 9.25 169.25 C9.28 170.43 9.3 171.61 9.33 172.83 C9 176 9 176 7.98 178.42 C5.46 180.43 3.47 180.52 0.3 180.36 C-4.01 179.69 -7.96 178.11 -12 176.5 C-12.44 176.33 -12.44 176.33 -14.64 175.49 C-16.76 174.67 -18.88 173.84 -21 173 C-20.34 172.67 -19.68 172.34 -19 172 C-19.29 157.5 -19.58 143 -19.88 128.5 C-19.9 127.42 -19.92 126.34 -19.94 125.23 C-20.56 94.82 -21.26 64.41 -22.12 34 C-22.15 33.22 -22.17 32.44 -22.19 31.64 C-22.46 22.43 -22.72 13.21 -23 4 C-19.99 4.54 -17.68 5.15 -14.88 6.44 C-10.15 8.58 -5.1 9.22 0 10 C0 6.7 0 3.4 0 0 Z " fill="#CF8E12" transform="translate(273,727)"/>
<path d="M0 0 C2.47 1.84 3.8 2.94 4.38 6.01 C2.01 25.49 -19.73 42.63 -34 54 C-35.17 54.96 -36.34 55.92 -37.51 56.88 C-83.14 94.28 -83.14 94.28 -106 93 C-108 92 -108 92 -109 90 C-110.2 78.18 -103.67 69.14 -96.6 60.24 C-87.39 48.98 -77.47 38.98 -66 30 C-65.04 29.25 -64.08 28.49 -63.09 27.71 C-47.18 15.49 -21.35 -3.98 0 0 Z " fill="#FDE888" transform="translate(351,386)"/>
<path d="M0 0 C0.95 0.03 1.91 0.05 2.89 0.08 C6.19 0.29 9.37 0.67 12.62 1.25 C-1.46 20.65 -1.46 20.65 -9.78 25.71 C-12.47 27.39 -14.33 28.82 -16.38 31.25 C-16.97 34.31 -16.97 34.31 -17.09 37.9 C-17.12 38.56 -17.14 39.22 -17.17 39.89 C-17.23 41.3 -17.28 42.7 -17.31 44.1 C-17.37 46.2 -17.46 48.3 -17.55 50.4 C-17.71 54.07 -17.85 57.73 -17.98 61.4 C-18.06 63.85 -18.15 66.31 -18.24 68.76 C-18.37 72.25 -18.49 75.74 -18.62 79.23 C-18.94 88.28 -19.28 97.32 -19.61 106.37 C-19.63 106.81 -19.63 106.81 -19.71 109.04 C-20.25 123.4 -20.88 137.75 -21.62 152.1 C-22.44 167.81 -22.96 183.52 -23.38 199.25 C-32.94 203.4 -32.94 203.4 -37.94 203.5 C-38.33 203.51 -38.33 203.51 -40.32 203.58 C-40.66 203.52 -40.66 203.52 -42.38 203.25 C-44.51 200.05 -44.63 199.25 -44.64 195.59 C-44.64 194.62 -44.65 193.65 -44.65 192.65 C-44.64 191.58 -44.63 190.51 -44.62 189.4 C-44.62 188.26 -44.61 187.13 -44.6 185.95 C-44.44 170.37 -43.48 154.82 -42.58 139.27 C-42.2 132.77 -41.84 126.27 -41.48 119.77 C-41.39 118.18 -41.3 116.59 -41.21 115.01 C-40.58 103.65 -40.08 92.31 -39.7 80.94 C-39.48 74.44 -39.1 67.98 -38.58 61.49 C-38.33 57.6 -38.27 53.73 -38.23 49.84 C-38.21 48.4 -38.2 46.97 -38.18 45.53 C-38.15 43.34 -38.12 41.15 -38.12 38.96 C-38.12 36.79 -38.09 34.63 -38.05 32.46 C-38.04 31.2 -38.03 29.93 -38.02 28.62 C-37.02 23.37 -33.84 21.27 -29.61 18.33 C-28.65 17.72 -27.68 17.12 -26.69 16.5 C-21.53 13.15 -17.07 9.47 -12.63 5.23 C-8.51 1.61 -5.55 -0.16 0 0 Z " fill="#FBCC38" transform="translate(783.375,703.75)"/>
<path d="M0 0 C1 2 1 2 0.52 3.72 C0.38 4.06 0.38 4.06 -0.33 5.78 C-0.63 6.54 -0.94 7.29 -1.25 8.07 C-1.58 8.87 -1.91 9.67 -2.25 10.5 C-4.52 16.16 -6.65 21.74 -8.27 27.62 C-9 29.99 -9.87 32.21 -10.83 34.49 C-13.24 40.44 -15.15 46.51 -17.06 52.62 C-19.01 58.84 -20.95 65.02 -23.29 71.1 C-24.62 74.65 -25.74 78.26 -26.88 81.88 C-27.13 82.7 -27.39 83.52 -27.66 84.37 C-29.61 90.62 -31.39 96.91 -33.1 103.22 C-34.61 108.74 -36.3 114.18 -38.06 119.62 C-40.76 128 -42.97 136.43 -45 145 C-45.33 146.33 -45.66 147.67 -46 149 C-61.82 148.27 -61.82 148.27 -66.19 147 C-71.72 145.55 -77.3 145.33 -83 145 C-82.01 144.67 -81.02 144.34 -80 144 C-79.89 142.97 -79.78 141.94 -79.67 140.88 C-79.01 137.05 -77.97 134.34 -76.25 130.88 C-74.16 126.53 -72.28 122.22 -70.62 117.69 C-68.48 111.98 -65.91 106.62 -63.14 101.21 C-61.42 97.85 -59.74 94.49 -58.2 91.05 C-52.41 78.15 -45.3 66.1 -38 54 C-37.53 53.22 -37.05 52.43 -36.57 51.63 C-28.7 38.66 -20.11 26.2 -11.19 13.94 C-10.76 13.34 -10.32 12.75 -9.88 12.13 C-6.78 7.92 -3.45 3.93 0 0 Z " fill="#B70B13" transform="translate(633,106)"/>
<path d="M0 0 C-2.98 3.31 -5.78 5.06 -9.81 6.94 C-48.35 25.49 -91.53 50.53 -122 81 C-122.81 85.63 -123.14 90.14 -123.21 94.84 C-123.24 96.14 -123.26 97.44 -123.29 98.78 C-123.3 99.46 -123.32 100.14 -123.33 100.84 C-124.11 138.22 -124.11 138.22 -128 146 C-131.03 144.55 -133.82 142.91 -136.62 141.06 C-137.4 140.56 -138.18 140.05 -138.98 139.54 C-141 138 -141 138 -143 135 C-143.25 132.82 -143.25 132.82 -143.24 130.26 C-143.25 129.3 -143.25 128.34 -143.25 127.34 C-143.25 126.82 -143.25 126.82 -143.23 124.19 C-143.23 123.11 -143.23 122.04 -143.23 120.93 C-143.23 118.64 -143.22 116.36 -143.21 114.07 C-143.19 110.61 -143.19 107.14 -143.19 103.68 C-143.18 101.46 -143.17 99.23 -143.17 97 C-143.17 95.98 -143.17 94.96 -143.16 93.91 C-143.13 88.77 -142.99 83.64 -142.69 78.51 C-142.66 78.03 -142.66 78.03 -142.52 75.61 C-141.51 70.55 -137.95 68 -134 65 C-133.52 64.63 -133.52 64.63 -131.09 62.75 C-111.96 48.36 -90.56 36.32 -69 26 C-68.16 25.6 -67.33 25.2 -66.46 24.79 C-53.79 18.76 -40.93 13.23 -27.94 7.94 C-27.24 7.65 -26.55 7.37 -25.83 7.08 C-23.84 6.26 -21.84 5.46 -19.84 4.65 C-18.69 4.19 -17.54 3.72 -16.35 3.25 C-10.8 1.18 -5.96 -0.29 0 0 Z " fill="#F9CE3D" transform="translate(301,510)"/>
<path d="M0 0 C6.53 4.82 11.35 10.21 14 18 C15.44 29.09 13.01 37.26 6.39 46.16 C2.09 50.97 -2.95 53.03 -9 55 C-9.99 55.33 -10.98 55.66 -12 56 C-20.96 57 -28.72 54.87 -35.81 49.25 C-41.73 43.72 -45.46 36.78 -46.37 28.7 C-46.57 18.51 -44.65 11.63 -37.62 4.12 C-27.46 -5.26 -11.96 -7.86 0 0 Z " fill="#040404" transform="translate(649,670)"/>
<path d="M0 0 C6.86 3.96 11.39 9.13 15.5 15.81 C17.72 24.13 17.45 32.42 13.83 40.28 C9.37 47.94 3.02 53.8 -5.5 56.56 C-23.3 58.09 -23.3 58.09 -30.5 52.56 C-31.1 52.16 -31.7 51.76 -32.31 51.35 C-37.77 47.29 -41.32 41.98 -43.5 35.56 C-44.82 26.11 -44.31 17.51 -38.5 9.56 C-36.38 6.89 -34.16 4.7 -31.5 2.56 C-30.88 2.05 -30.25 1.55 -29.61 1.02 C-20.99 -4.85 -9.2 -4.17 0 0 Z " fill="#040303" transform="translate(403.5,668.4375)"/>
<path d="M0 0 C7.88 5.2 7.88 5.2 10 8 C9.79 12.76 7.25 15.44 4.19 18.81 C-2.31 26.23 -8.18 34.05 -14 42 C-14.52 42.71 -15.05 43.43 -15.59 44.16 C-38.11 74.9 -58.13 106.92 -77 140 C-82.19 139.43 -86.31 136.9 -90.81 134.44 C-91.21 134.23 -91.21 134.23 -93.2 133.15 C-95.14 132.11 -97.07 131.06 -99 130 C-98.01 129.67 -97.02 129.34 -96 129 C-95.31 127.34 -94.65 125.67 -94 124 C-92.45 121.44 -90.72 119.01 -89 116.56 C-88.51 115.86 -88.02 115.15 -87.51 114.43 C-83.59 108.79 -79.6 103.2 -75.59 97.63 C-73.74 95.05 -71.91 92.45 -70.09 89.84 C-64.09 81.23 -57.87 72.87 -51.32 64.67 C-49.14 61.91 -47.01 59.11 -44.88 56.31 C-41.17 51.47 -37.36 46.72 -33.48 42.01 C-29.9 37.66 -26.35 33.29 -22.81 28.91 C-19.64 25.01 -16.45 21.12 -13.25 17.25 C-8.65 11.64 -4.31 5.84 0 0 Z " fill="#BC0D14" transform="translate(799,164)"/>
<path d="M0 0 C0.66 0 1.32 0 2 0 C3.27 9.97 4.27 19.87 4.75 29.9 C5 33 5 33 6 35 C6.2 36.63 6.34 38.27 6.46 39.91 C6.54 40.94 6.62 41.96 6.69 43.02 C6.77 44.13 6.85 45.25 6.93 46.4 C7.02 47.56 7.1 48.72 7.19 49.92 C7.37 52.38 7.55 54.83 7.73 57.29 C8.07 61.98 8.42 66.66 8.78 71.34 C9.12 75.93 9.46 80.51 9.8 85.1 C9.98 87.42 10.15 89.75 10.33 92.07 C13.18 130.26 13.18 130.26 12.94 142.56 C13 145 13 145 14 147 C4.43 147 -5.14 147 -15 147 C-13.98 127.8 -12.61 108.74 -10.4 89.64 C-9.93 85.38 -9.51 81.12 -9.09 76.86 C-7.97 65.41 -6.69 53.99 -5.4 42.56 C-5 39.04 -4.6 35.52 -4.21 32.01 C-1.75 10.19 -1.75 10.19 0 0 Z " fill="#BC0D14" transform="translate(508,102)"/>
<path d="M0 0 C4.05 3.82 7.26 7.88 10.44 12.44 C10.95 13.17 11.47 13.91 12 14.67 C26.14 35.08 38.67 56.54 50.94 78.12 C51.49 79.09 52.03 80.05 52.6 81.05 C55.92 86.95 59 92.86 61.66 99.09 C63 101 63 101 65.66 101.79 C66.43 101.86 67.2 101.93 68 102 C65.15 103.5 62.32 104.64 59.26 105.66 C58.36 105.96 57.46 106.26 56.53 106.57 C55.59 106.87 54.65 107.18 53.69 107.5 C52.76 107.81 51.84 108.12 50.88 108.43 C45.95 110.07 41.01 111.62 36 113 C29.8 96.75 24.68 80.13 19.73 63.47 C17.4 55.63 15.03 47.85 12.39 40.11 C10.51 34.58 8.72 29.03 6.93 23.47 C6.33 21.61 5.72 19.75 5.12 17.89 C3.21 11.96 1.41 6.07 0 0 Z " fill="#BA0C13" transform="translate(314,167)"/>
<path d="M0 0 C1 2 1 2 0.56 3.76 C0.28 4.49 0.01 5.22 -0.27 5.98 C-0.43 6.41 -0.43 6.41 -1.25 8.63 C-1.44 9.12 -1.44 9.12 -2.38 11.62 C-3.2 13.87 -4.03 16.12 -4.85 18.36 C-4.96 18.68 -4.96 18.68 -5.56 20.29 C-9 29.69 -12.33 39.14 -15.67 48.58 C-16.8 51.77 -17.93 54.95 -19.06 58.14 C-22.18 66.94 -25.29 75.74 -28.21 84.61 C-29.43 88.28 -30.75 91.92 -32.06 95.56 C-34.35 101.97 -36.37 108.39 -38 115 C-42.47 114.29 -46.55 112.76 -50.75 111.12 C-55.24 109.4 -59.73 107.72 -64.31 106.25 C-68 105 -68 105 -71 103 C-68.69 103.33 -66.38 103.66 -64 104 C-63.72 103.27 -63.43 102.53 -63.14 101.78 C-62.12 99.29 -61 96.94 -59.75 94.55 C-59.31 93.71 -58.87 92.87 -58.42 92.01 C-57.95 91.12 -57.48 90.23 -57 89.31 C-56.51 88.38 -56.02 87.45 -55.52 86.5 C-48.2 72.65 -40.64 59.06 -32.19 45.87 C-31.05 44.08 -29.92 42.29 -28.79 40.49 C-19.94 26.46 -10.25 13.04 0 0 Z " fill="#CB0F14" transform="translate(716,168)"/>
<path d="M0 0 C1.83 2.74 2.7 4.75 3.7 7.85 C4.02 8.83 4.34 9.82 4.67 10.83 C4.83 11.37 4.83 11.37 5.69 14.06 C6.04 15.16 6.39 16.27 6.75 17.4 C10.55 29.5 13.84 41.72 17 54 C17.29 55.1 17.57 56.19 17.86 57.32 C18 57.86 18 57.86 18.7 60.57 C18.82 61.06 18.82 61.06 19.46 63.51 C20 66 20 66 20 69 C16.82 70.04 13.63 71.06 10.44 72.06 C9.54 72.36 8.65 72.65 7.72 72.96 C2.33 74.63 -1.48 75.33 -7 74 C-6.67 73.84 -6.67 73.84 -5 73 C-5.02 72.21 -5.04 71.43 -5.06 70.62 C-5.24 63.19 -5.4 55.76 -5.55 48.33 C-5.62 44.51 -5.7 40.69 -5.8 36.87 C-5.89 33.18 -5.97 29.49 -6.03 25.8 C-6.06 24.4 -6.09 23 -6.13 21.59 C-6.51 7.65 -6.51 7.65 -3 2 C-2.01 1.34 -1.02 0.68 0 0 Z " fill="#D41216" transform="translate(395,191)"/>
<path d="M0 0 C16.65 -1.78 16.65 -1.78 21.88 1 C25.2 3.68 27.76 7.03 30.46 10.32 C33.24 13.35 36.58 15.64 39.94 18 C40.25 18.22 40.25 18.22 41.84 19.34 C42.44 19.77 43.04 20.19 43.65 20.62 C44.22 21.03 44.79 21.44 45.38 21.85 C46.88 22.91 48.4 23.95 49.92 24.98 C52 27 52 27 52.49 29.58 C52.46 30.02 52.46 30.02 52.31 32.25 C52.27 33.14 52.22 34.03 52.18 34.95 C52.15 35.29 52.15 35.29 52 37 C38.01 37.2 27.2 29.89 17 21 C15.79 20.04 14.58 19.08 13.38 18.12 C12.59 17.42 11.81 16.72 11 16 C11 15.34 11 14.68 11 14 C10.34 14 9.68 14 9 14 C7.37 12.07 5.86 10.16 4.38 8.12 C3.95 7.57 3.53 7.01 3.1 6.44 C0 2.26 0 2.26 0 0 Z " fill="#FBC731" transform="translate(221,700)"/>
<path d="M0 0 C2.65 0.31 5.29 0.62 7.94 0.94 C8.69 1.02 9.45 1.11 10.22 1.2 C15.89 1.89 15.89 1.89 17 3 C16.44 10.43 14.98 17.65 13.5 24.94 C13.27 26.07 13.05 27.21 12.82 28.38 C11.13 36.74 11.13 36.74 10 39 C7.44 38.86 4.87 38.71 2.31 38.56 C1.59 38.52 0.87 38.48 0.13 38.44 C-3.67 38.22 -7.29 37.87 -11 37 C-10.34 36.83 -10.34 36.83 -7 36 C-6.86 35.09 -6.72 34.17 -6.57 33.23 C-6.04 29.83 -5.51 26.43 -4.97 23.03 C-4.74 21.56 -4.51 20.09 -4.29 18.62 C-3.96 16.5 -3.63 14.39 -3.29 12.27 C-3.09 11 -2.89 9.72 -2.69 8.41 C-2.08 5.38 -1.26 2.81 0 0 Z " fill="#E4A621" transform="translate(565,270)"/>
<path d="M0 0 C0.33 0.99 0.66 1.98 1 3 C1.41 2.89 1.41 2.89 3.48 2.31 C4.56 2.02 5.64 1.73 6.75 1.44 C7.82 1.15 8.88 0.86 9.98 0.56 C13 0 13 0 17 1 C17 8.26 17 15.52 17 23 C14.6 23.6 14.6 23.6 2.61 26.6 C2.34 26.66 2.34 26.66 1 27 C0.04 20.59 0.13 14.85 0.84 8.41 C0.9 7.61 0.95 6.82 1 6 C0.67 5.67 0.34 5.34 0 5 C-0.04 3.33 -0.04 1.67 0 0 Z " fill="#D29314" transform="translate(202,613)"/>
<path d="M0 0 C0 0.66 0 1.32 0 2 C-7.97 3.61 -15.95 5.18 -23.93 6.71 C-25.35 6.99 -26.78 7.27 -28.2 7.55 C-49.51 11.75 -49.51 11.75 -57 8 C-57.66 5.92 -57.66 5.92 -58 4 C-51.34 2.98 -44.67 1.98 -38 1 C-37.25 0.89 -36.51 0.78 -35.74 0.66 C-23.94 -1.09 -11.81 -2.27 0 0 Z " fill="#F1C83A" transform="translate(499,268)"/>
<path d="M0 0 C0.99 0.33 1.98 0.66 3 1 C3 1.99 3 2.98 3 4 C-32.97 3.84 -32.97 3.84 -215 3 C-215 2.67 -215 2.34 -215 2 C-144.05 2 -73.1 2 0 2 C0 1.34 0 0.68 0 0 Z " fill="#CECECE" transform="translate(618,770)"/>
<path d="M0 0 C3.04 3.33 3.36 5.49 3.25 9.95 C3.22 11.19 3.2 12.43 3.17 13.71 C3.12 15.14 3.06 16.57 3 18 C2.98 18.39 2.98 18.39 2.9 20.39 C2.65 26.55 2.33 32.71 2 38.88 C1.9 40.74 1.81 42.6 1.71 44.46 C1.48 48.98 1.24 53.49 1 58 C0.67 58 0.34 58 0 58 C0 49.42 0 40.84 0 32 C-0.33 32 -0.66 32 -1 32 C-1.11 21.27 -0.96 10.69 0 0 Z " fill="#30270B" transform="translate(741,785)"/>
<path d="M0 0 C-2.31 2.31 -2.99 2.32 -6.13 2.63 C-6.94 2.72 -7.74 2.8 -8.57 2.89 C-9.42 2.97 -10.26 3.04 -11.12 3.12 C-11.97 3.21 -12.82 3.3 -13.7 3.39 C-15.8 3.6 -17.9 3.8 -20 4 C-20.33 3.34 -20.66 2.68 -21 2 C-24.06 1.38 -24.06 1.38 -27 1 C-27 0.67 -27 0.34 -27 0 C-18.16 -2.03 -8.93 -1.11 0 0 Z " fill="#F4C32E" transform="translate(500,324)"/>
<path d="M0 0 C0.66 0 1.32 0 2 0 C2.66 3.3 3.32 6.6 4 10 C4.95 9.86 5.91 9.71 6.89 9.56 C8.14 9.38 9.4 9.19 10.69 9 C11.31 8.91 11.31 8.91 14.45 8.44 C17.36 8.08 20.08 8 23 8 C25.31 7 25.31 7 27 6 C27.99 6.66 28.98 7.32 30 8 C28.13 8.48 26.25 8.96 24.38 9.44 C23.85 9.57 23.85 9.57 21.21 10.25 C16.48 11.36 11.99 12.14 7.12 12.06 C6.34 12.05 5.56 12.04 4.76 12.04 C4.18 12.02 3.6 12.01 3 12 C2.49 10.56 2 9.13 1.5 7.69 C1.22 6.89 0.94 6.09 0.66 5.26 C0 3 0 3 0 0 Z " fill="#D81216" transform="translate(433,243)"/>
<path d="M0 0 C0.33 0 0.66 0 1 0 C1.3 5.83 0.78 8.78 -2 14 C-2.38 16.33 -2.71 18.66 -3 21 C-3.66 23.33 -4.33 25.67 -5 28 C-5 28.99 -5 29.98 -5 31 C-5.99 31.33 -6.98 31.66 -8 32 C-8.27 26.39 -7.36 21.9 -5.69 16.56 C-5.58 16.21 -5.58 16.21 -5.04 14.4 C-3.56 9.52 -1.83 4.76 0 0 Z " fill="#DFAE13" transform="translate(190,514)"/>
<path d="M0 0 C11.55 0 23.1 0 35 0 C34.34 0.99 33.68 1.98 33 3 C29.96 3.39 29.96 3.39 26.09 3.4 C25.41 3.4 24.73 3.4 24.03 3.41 C22.59 3.41 21.15 3.4 19.71 3.39 C17.51 3.38 15.3 3.39 13.1 3.41 C11.7 3.41 10.3 3.4 8.91 3.4 C7.63 3.4 6.36 3.39 5.04 3.39 C4.04 3.26 3.03 3.13 2 3 C1.34 2.01 0.68 1.02 0 0 Z " fill="#181818" transform="translate(490,964)"/>
<path d="M0 0 C1.32 0.33 2.64 0.66 4 1 C3.89 4.29 3.76 7.58 3.62 10.88 C3.59 11.81 3.56 12.75 3.53 13.71 C3.49 14.61 3.45 15.51 3.41 16.43 C3.38 17.26 3.35 18.08 3.32 18.94 C3 21 3 21 1 23 C0 22 0 22 -0.11 19.87 C-0.11 18.95 -0.1 18.03 -0.1 17.09 C-0.09 16.1 -0.09 15.11 -0.09 14.09 C-0.08 13.05 -0.07 12.01 -0.06 10.94 C-0.06 9.89 -0.05 8.85 -0.05 7.77 C-0.04 5.18 -0.02 2.59 0 0 Z " fill="#D69919" transform="translate(803,614)"/>
<path d="M0 0 C0.99 0.33 1.98 0.66 3 1 C3 9.58 3 18.16 3 27 C2.67 27 2.34 27 2 27 C1.67 25.02 1.34 23.04 1 21 C0.67 21 0.34 21 0 21 C0 14.07 0 7.14 0 0 Z " fill="#E3E3E2" transform="translate(779,607)"/>
<path d="M0 0 C6.41 0.84 12.14 2.81 18.12 5.21 C18.12 5.54 18.12 5.87 18.12 6.21 C10.23 6.7 2.79 4.89 -4.88 3.21 C-2.43 0.28 -2.43 0.28 0 0 Z " fill="#F3BC2C" transform="translate(619.875,281.78515625)"/>
<path d="M0 0 C1.63 0.11 3.25 0.24 4.88 0.38 C5.78 0.44 6.68 0.51 7.62 0.59 C10 1 10 1 12 3 C12 3.99 12 4.98 12 6 C7.84 6.08 4.05 5.98 0 5 C0 3.35 0 1.7 0 0 Z " fill="#F3C22F" transform="translate(602,278)"/>
<path d="M0 0 C0.33 0.99 0.66 1.98 1 3 C0.31 3.68 -0.37 4.35 -1.08 5.05 C-1.98 5.94 -2.88 6.83 -3.81 7.75 C-4.26 8.19 -4.26 8.19 -6.52 10.42 C-9 13 -9 13 -10.64 15.33 C-10.86 15.6 -10.86 15.6 -12 17 C-12.99 17 -13.98 17 -15 17 C-13.68 14.07 -12.25 12.01 -9.96 9.77 C-9.38 9.19 -8.8 8.62 -8.2 8.03 C-7.6 7.44 -7 6.85 -6.38 6.25 C-5.76 5.65 -5.15 5.05 -4.52 4.43 C-3.02 2.95 -1.51 1.47 0 0 Z " fill="#E3B418" transform="translate(257,411)"/>
<path d="M0 0 C-0.33 0.66 -0.66 1.32 -1 2 C-3.1 2.27 -5.2 2.53 -7.31 2.72 C-10.21 3.02 -13.06 3.45 -15.94 3.94 C-16.4 4.01 -16.4 4.01 -18.71 4.4 C-21 5 -21 5 -23 7 C-23.99 6.67 -24.98 6.34 -26 6 C-23.68 2.52 -22.31 2.27 -18.35 1.41 C-12.27 0.36 -6.18 -0.16 0 0 Z " fill="#EAC639" transform="translate(441,329)"/>
<path d="M0 0 C0.33 0 0.66 0 1 0 C1.33 7.26 1.66 14.52 2 22 C1.34 22 0.68 22 0 22 C0 25.96 0 29.92 0 34 C-0.33 34 -0.66 34 -1 34 C-1.14 22.63 -0.74 11.35 0 0 Z " fill="#BB9F2C" transform="translate(740,860)"/>
<path d="M0 0 C-3.34 3.58 -5.74 5.9 -10.75 6.12 C-11.49 6.08 -12.24 6.04 -13 6 C-12.34 5.67 -11.68 5.34 -11 5 C-11 4.34 -11 3.68 -11 3 C-11.66 2.67 -12.32 2.34 -13 2 C-8.46 0.55 -4.82 -0.24 0 0 Z " fill="#F0C533" transform="translate(301,510)"/>
<path d="M0 0 C-12.8 8.61 -12.8 8.61 -18.23 7.57 C-18.82 7.38 -19.4 7.19 -20 7 C-17.42 5.63 -14.84 4.28 -12.25 2.94 C-11.52 2.55 -10.79 2.16 -10.04 1.76 C-9.33 1.39 -8.62 1.03 -7.89 0.65 C-7.24 0.31 -6.59 -0.03 -5.92 -0.38 C-3.58 -1.14 -2.3 -0.79 0 0 Z " fill="#DAB527" transform="translate(343,304)"/>
<path d="M0 0 C1.44 4.32 0.02 7.36 -1.25 11.62 C-1.47 12.41 -1.69 13.2 -1.91 14.02 C-2.51 16.04 -3.24 18.03 -4 20 C-4.99 20.33 -5.98 20.66 -7 21 C-5.35 13.61 -3.38 6.79 0 0 Z " fill="#CF0F13" transform="translate(623,206)"/>
<path d="M0 0 C0.33 0 0.66 0 1 0 C2.02 10.36 2.11 20.6 2 31 C1.67 31 1.34 31 1 31 C0.95 30 0.9 29 0.85 27.97 C0.78 26.68 0.7 25.39 0.62 24.06 C0.56 22.77 0.49 21.49 0.41 20.16 C0.28 19.12 0.14 18.07 0 17 C-0.66 16.67 -1.32 16.34 -2 16 C-1.34 10.72 -0.68 5.44 0 0 Z " fill="#B89025" transform="translate(862,612)"/>
<path d="M0 0 C0.66 0 1.32 0 2 0 C0.22 11.94 0.22 11.94 -3 16 C-3.33 16 -3.66 16 -4 16 C-3.39 3.93 -3.39 3.93 0 0 Z " fill="#E6BE33" transform="translate(145,759)"/>
<path d="M0 0 C-5.04 3.36 -8.19 4.37 -14.19 4.62 C-14.94 4.66 -15.69 4.7 -16.46 4.74 C-18.31 4.84 -20.15 4.92 -22 5 C-15.47 0.65 -7.71 -0.44 0 0 Z " fill="#D4B533" transform="translate(415,334)"/>
<path d="M0 0 C0.33 0 0.66 0 1 0 C1.19 2.15 1.38 4.29 1.56 6.44 C1.67 7.63 1.77 8.83 1.88 10.06 C1.92 11.03 1.96 12 2 13 C1.67 13.33 1.34 13.66 1 14 C0.77 16.02 0.59 18.04 0.44 20.06 C0.35 21.17 0.27 22.27 0.18 23.41 C0.12 24.26 0.06 25.12 0 26 C-0.33 26 -0.66 26 -1 26 C-1.1 17.27 -1.17 8.67 0 0 Z M2 4 C2.33 4 2.66 4 3 4 C3 6.64 3 9.28 3 12 C2.67 12 2.34 12 2 12 C2 9.36 2 6.72 2 4 Z " fill="#414241" transform="translate(724,759)"/>
<path d="M0 0 C0.33 0 0.66 0 1 0 C1.76 10.36 2.13 20.61 2 31 C1.67 31 1.34 31 1 31 C0.94 30.26 0.88 29.53 0.82 28.77 C0.73 27.79 0.65 26.82 0.56 25.81 C0.48 24.85 0.4 23.89 0.32 22.89 C0 20 0 20 -0.56 17.62 C-1.15 14.1 -0.86 10.72 -0.56 7.19 C-0.51 6.49 -0.46 5.8 -0.4 5.09 C-0.28 3.39 -0.14 1.7 0 0 Z " fill="#996909" transform="translate(274,745)"/>
<path d="M0 0 C0.66 0.33 1.32 0.66 2 1 C1.67 2.98 1.34 4.96 1 7 C-4.28 6.67 -9.56 6.34 -15 6 C-15 5.67 -15 5.34 -15 5 C-12.36 5 -9.72 5 -7 5 C-6.67 4.34 -6.34 3.68 -6 3 C-6 3.66 -6 4.32 -6 5 C-4.12 4.75 -4.12 4.75 -2 4 C-0.75 1.94 -0.75 1.94 0 0 Z " fill="#BA8215" transform="translate(574,302)"/>
<path d="M0 0 C-0.4 2.82 -0.79 3.82 -3 5.72 C-5.65 8.75 -5.59 10.78 -5.75 14.75 C-5.81 15.92 -5.86 17.09 -5.92 18.3 C-5.95 19.19 -5.97 20.08 -6 21 C-6.33 21 -6.66 21 -7 21 C-7.14 18.44 -7.23 15.88 -7.31 13.31 C-7.35 12.59 -7.4 11.87 -7.44 11.13 C-7.54 6.89 -7.35 5.44 -4.61 1.98 C-2 0 -2 0 0 0 Z " fill="#BA9928" transform="translate(753,724)"/>
<path d="M0 0 C1.81 3.62 2.32 5.37 2.62 9.25 C2.7 10.14 2.77 11.03 2.85 11.95 C2.9 12.63 2.95 13.3 3 14 C-0.34 13.28 -2.34 12.18 -5 10 C-3.68 9.67 -2.36 9.34 -1 9 C-0.67 6.03 -0.34 3.06 0 0 Z " fill="#C69815" transform="translate(833,533)"/>
<path d="M0 0 C0.99 0.99 1.98 1.98 3 3 C2.67 3.99 2.34 4.98 2 6 C1.34 6 0.68 6 0 6 C0.66 6.66 1.32 7.32 2 8 C2.4 10.32 2.74 12.66 3 15 C1.35 14.67 -0.3 14.34 -2 14 C-1.04 4.59 -1.04 4.59 0 0 Z " fill="#B88217" transform="translate(597,299)"/>
<path d="M0 0 C0.66 0.99 1.32 1.98 2 3 C1.71 3.56 1.42 4.11 1.12 4.69 C-0.49 8.01 -1.84 11.1 -2.5 14.75 C-2.66 15.49 -2.83 16.24 -3 17 C-3.66 17.33 -4.32 17.66 -5 18 C-3.41 3.41 -3.41 3.41 0 0 Z " fill="#EABE2E" transform="translate(167,688)"/>
</svg>
